<?xml version="1.0" encoding="utf-8"?>
<!-- Generator: Adobe Illustrator 18.0.0, SVG Export Plug-In . SVG Version: 6.00 Build 0)  -->
<!DOCTYPE svg PUBLIC "-//W3C//DTD SVG 1.1//EN" "http://www.w3.org/Graphics/SVG/1.1/DTD/svg11.dtd">
<svg version="1.1" xmlns="http://www.w3.org/2000/svg" xmlns:xlink="http://www.w3.org/1999/xlink" x="0px" y="0px"
	 viewBox="0 0 81 40.4" enable-background="new 0 0 81 40.4" xml:space="preserve">
<g id="Layer_2">
</g>
<g id="Layer_3">
</g>
<g id="Layer_4">
</g>
<g id="Layer_1">
	<g>
		<path fill="#464646" d="M1.6,1.1h7.1c1.4,0,2.5,0.2,3.4,0.6C13,2,13.7,2.6,14.3,3.3c0.6,0.7,1,1.5,1.2,2.5s0.4,1.9,0.4,3
			c0,1.7-0.2,2.9-0.6,3.8c-0.4,0.9-0.9,1.7-1.6,2.3c-0.7,0.6-1.4,1-2.2,1.2c-1,0.3-2,0.4-2.9,0.4H1.6V1.1z M6.4,4.6V13h1.2
			c1,0,1.7-0.1,2.1-0.3c0.4-0.2,0.8-0.6,1-1.2c0.2-0.6,0.4-1.4,0.4-2.7c0-1.6-0.3-2.8-0.8-3.4S8.9,4.6,7.6,4.6H6.4z"/>
		<path fill="#464646" d="M18.6,1.1h4.8v15.5h-4.8V1.1z"/>
		<path fill="#464646" d="M26.8,1.1h8c1.7,0,3,0.4,3.9,1.2c0.9,0.8,1.3,2,1.3,3.5c0,1.6-0.5,2.8-1.4,3.7s-2.4,1.3-4.3,1.3h-2.6v5.7
			h-4.8V1.1z M31.6,7.7h1.2c0.9,0,1.6-0.2,1.9-0.5c0.4-0.3,0.6-0.7,0.6-1.2c0-0.5-0.2-0.9-0.5-1.2S33.9,4.2,33,4.2h-1.4V7.7z"/>
		<path fill="#464646" d="M41.4,1.1h14.5v3.8H51v11.7h-4.8V4.9h-4.9V1.1z"/>
		<path fill="#464646" d="M58.2,1.1H63v15.5h-4.8V1.1z"/>
		<path fill="#464646" d="M0.7,33.1l4.6-0.3c0.1,0.7,0.3,1.3,0.6,1.7c0.5,0.6,1.2,0.9,2.1,0.9c0.7,0,1.2-0.2,1.6-0.5
			c0.4-0.3,0.6-0.7,0.6-1.1c0-0.4-0.2-0.8-0.5-1.1c-0.4-0.3-1.2-0.6-2.5-0.9c-2.1-0.5-3.6-1.1-4.5-1.9c-0.9-0.8-1.4-1.8-1.4-3
			c0-0.8,0.2-1.5,0.7-2.3c0.5-0.7,1.2-1.3,2.1-1.7s2.2-0.6,3.8-0.6c2,0,3.5,0.4,4.5,1.1c1,0.7,1.7,1.9,1.9,3.5l-4.5,0.3
			c-0.1-0.7-0.4-1.2-0.8-1.5c-0.4-0.3-0.9-0.5-1.6-0.5c-0.6,0-1,0.1-1.3,0.4c-0.3,0.2-0.4,0.5-0.4,0.9c0,0.2,0.1,0.5,0.3,0.7
			c0.2,0.2,0.8,0.4,1.6,0.6c2.1,0.5,3.6,0.9,4.5,1.4c0.9,0.5,1.6,1,2,1.7c0.4,0.7,0.6,1.4,0.6,2.3c0,1-0.3,1.9-0.8,2.7
			c-0.5,0.8-1.3,1.5-2.3,1.9c-1,0.4-2.2,0.6-3.7,0.6c-2.6,0-4.5-0.5-5.5-1.5C1.5,35.9,0.9,34.6,0.7,33.1z"/>
		<path fill="#464646" d="M17.4,22.7h4.8v15.5h-4.8V22.7z"/>
		<path fill="#464646" d="M25.6,22.7h4.5l5.8,8.6v-8.6h4.5v15.5h-4.5l-5.8-8.5v8.5h-4.5V22.7z"/>
		<path fill="#464646" d="M51.4,32.6v-3.2h7.4V36c-1.4,1-2.7,1.6-3.8,2c-1.1,0.3-2.4,0.5-3.9,0.5c-1.8,0-3.3-0.3-4.5-0.9
			c-1.2-0.6-2.1-1.6-2.7-2.8c-0.6-1.2-1-2.7-1-4.3c0-1.7,0.3-3.2,1-4.4s1.7-2.2,3.1-2.8c1-0.5,2.5-0.8,4.2-0.8c1.7,0,3,0.2,3.8,0.5
			c0.8,0.3,1.6,0.8,2.1,1.4c0.6,0.7,1,1.5,1.3,2.5L54,27.7c-0.2-0.6-0.5-1-1-1.3c-0.5-0.3-1-0.5-1.7-0.5c-1,0-1.9,0.4-2.5,1.1
			s-0.9,1.9-0.9,3.5c0,1.7,0.3,2.9,0.9,3.6c0.6,0.7,1.5,1.1,2.6,1.1c0.5,0,1-0.1,1.5-0.2c0.5-0.2,1-0.4,1.7-0.8v-1.5H51.4z"/>
		<path fill="#464646" d="M61.7,22.7h4.8v5.4h5.2v-5.4h4.8v15.5h-4.8v-6.3h-5.2v6.3h-4.8V22.7z"/>
	</g>
</g>
</svg>
